<?xml version="1.0" encoding="UTF-8" standalone="no"?>
<!-- Generator: Adobe Illustrator 24.0.1, SVG Export Plug-In . SVG Version: 6.00 Build 0)  -->

<svg
   version="1.1"
   id="ico"
   x="0px"
   y="0px"
   width="50px"
   height="50px"
   viewBox="0 0 50 50"
   style="enable-background:new 0 0 50 50;"
   xml:space="preserve"
   sodipodi:docname="ico-solidaridad.svg"
   inkscape:version="1.1 (c68e22c387, 2021-05-23)"
   xmlns:inkscape="http://www.inkscape.org/namespaces/inkscape"
   xmlns:sodipodi="http://sodipodi.sourceforge.net/DTD/sodipodi-0.dtd"
   xmlns="http://www.w3.org/2000/svg"
   xmlns:svg="http://www.w3.org/2000/svg"><defs
   id="defs21" /><sodipodi:namedview
   id="namedview19"
   pagecolor="#ffffff"
   bordercolor="#111111"
   borderopacity="1"
   inkscape:pageshadow="0"
   inkscape:pageopacity="0"
   inkscape:pagecheckerboard="1"
   showgrid="false"
   inkscape:zoom="16.14"
   inkscape:cx="25"
   inkscape:cy="25"
   inkscape:window-width="1920"
   inkscape:window-height="1017"
   inkscape:window-x="1912"
   inkscape:window-y="-8"
   inkscape:window-maximized="1"
   inkscape:current-layer="ico" />
<path
   d="M46.607,28.99c-0.103-0.138-0.256-0.23-0.427-0.255c-0.171-0.026-0.344,0.018-0.482,0.121l-0.468,0.347  c-0.542-0.75-1.606-2.204-2.861-3.833c-0.151-1.356-0.735-6.125-1.574-7.258c-0.617-0.833-5.692-5.627-6.837-5.691  c-0.011-0.001-0.021-0.001-0.033-0.001c-0.779,0-3.951,1.388-6.555,2.593c-0.215,0.128-1.93,1.204-1.751,2.469  c-0.238,0.38-0.435,0.732-0.597,1.062c-0.162-0.33-0.359-0.682-0.597-1.062c0.179-1.265-1.544-2.344-1.838-2.512  c-2.083-0.856-5.665-2.277-6.479-2.277c-0.012,0-0.023,0-0.034,0c-1.158,0.066-6.212,4.812-6.823,5.638  c-0.838,1.131-1.421,5.725-1.573,7.039c-1.256,1.63-2.321,3.086-2.863,3.835l-0.468-0.347c-0.139-0.104-0.312-0.147-0.482-0.121  c-0.171,0.024-0.324,0.117-0.427,0.255l-2.848,3.837c-0.104,0.139-0.146,0.312-0.121,0.482c0.024,0.171,0.117,0.324,0.255,0.428  l7.561,5.609c0.117,0.086,0.253,0.128,0.387,0.128c0.199,0,0.396-0.091,0.523-0.263l2.847-3.836c0.103-0.139,0.146-0.312,0.12-0.482  c-0.024-0.171-0.117-0.324-0.255-0.428l-0.454-0.337l0.221-0.302c0.773-0.035,2.677-0.208,3.823-1.07  c1.135-0.856,5.73-0.434,6.414-0.12c0.171,0.083,0.327,0.21,0.493,0.345c0.403,0.326,0.957,0.778,1.849,0.557  c0.319-0.079,0.577-0.282,0.77-0.563c0.193,0.281,0.451,0.484,0.77,0.563c0.884,0.223,1.444-0.229,1.849-0.557  c0.166-0.135,0.322-0.262,0.492-0.345c0.687-0.313,5.28-0.736,6.416,0.12c1.146,0.862,3.049,1.035,3.822,1.07l0.221,0.302  l-0.454,0.337c-0.138,0.104-0.23,0.257-0.255,0.428c-0.025,0.17,0.018,0.344,0.121,0.482l2.847,3.836  c0.127,0.172,0.323,0.263,0.522,0.263c0.134,0,0.27-0.042,0.387-0.128l7.561-5.609c0.138-0.104,0.23-0.257,0.255-0.428  c0.025-0.17-0.018-0.344-0.121-0.482L46.607,28.99z M8.536,37.915L2.02,33.08l2.073-2.793l0.482,0.358  c0.002,0.001,0.002,0.003,0.004,0.004s0.004,0.001,0.005,0.003l6.024,4.471L8.536,37.915z M23.941,32.276  c-0.242,0.059-0.345-0.001-0.721-0.306c-0.204-0.166-0.436-0.354-0.737-0.501c-0.829-0.408-6.052-1.048-7.77,0.248  c-0.893,0.672-2.72,0.817-3.363,0.817c-0.004,0-0.008,0-0.012,0h-0.001c-0.208,0-0.403,0.099-0.525,0.267l-0.405,0.553l-4.549-3.376  c0.549-0.759,1.657-2.275,2.958-3.959c0.072-0.095,0.118-0.207,0.131-0.325c0.262-2.334,0.852-5.923,1.348-6.592  c0.794-1.072,5.017-4.729,5.882-5.106c0.622,0.095,3.444,1.159,5.828,2.131c0.111,0.067,0.215,0.14,0.316,0.215  c-1.878-0.708-4.493-1.626-5.312-1.593c-1.132,0.065-3.591,3.164-5.454,5.752c-0.21,0.291-0.144,0.697,0.147,0.907  c0.292,0.211,0.697,0.144,0.907-0.147c1.702-2.363,3.926-5.025,4.474-5.213c0.551-0.058,3.613,1.033,6.214,2.064  c1.175,1.845,1.237,2.918,0.893,3.31c-0.229,0.262-0.696,0.288-0.989,0.144c-0.24-0.116-0.634-0.921-0.826-1.689  c-0.086-0.339-0.425-0.553-0.768-0.478c-0.826,0.177-2.909-0.407-4.031-0.816c-0.297-0.11-0.63,0.014-0.787,0.289l-2.803,4.923  c-0.073,0.127-0.101,0.275-0.078,0.42c0.049,0.317,0.525,3.121,2.166,3.853c0.59,0.263,1.581,0.436,2.729,0.637  c1.556,0.272,3.687,0.646,4.405,1.29c0.688,0.616,0.891,1.401,0.854,1.886C24.042,32.151,23.954,32.266,23.941,32.276z M25.022,30.3  c-0.208-0.448-0.517-0.888-0.947-1.274c-0.996-0.894-3.149-1.271-5.05-1.603c-1.019-0.179-1.98-0.347-2.423-0.544  c-0.698-0.312-1.188-1.704-1.372-2.646l2.42-4.251c0.831,0.274,2.433,0.745,3.605,0.745c0.004,0,0.009,0,0.013,0  c0.226,0.677,0.662,1.667,1.363,2.008c0.679,0.328,1.708,0.308,2.39-0.321c0.683,0.628,1.712,0.649,2.39,0.321  c0.701-0.341,1.138-1.331,1.363-2.008c0.004,0,0.009,0,0.013,0c1.173,0,2.774-0.471,3.605-0.745l2.42,4.25  c-0.169,0.848-0.652,2.325-1.372,2.646c-0.442,0.197-1.404,0.365-2.423,0.544c-1.9,0.332-4.054,0.709-5.049,1.602  C25.539,29.411,25.23,29.852,25.022,30.3z M39.231,32.802c-0.122-0.168-0.317-0.267-0.525-0.267h-0.001c-0.004,0-0.008,0-0.012,0  c-0.644,0-2.471-0.146-3.362-0.817c-1.719-1.295-6.94-0.654-7.77-0.249c-0.303,0.148-0.534,0.336-0.738,0.502  c-0.377,0.305-0.481,0.361-0.713,0.309c-0.021-0.014-0.108-0.128-0.128-0.4c-0.036-0.484,0.167-1.27,0.855-1.887  c0.718-0.644,2.849-1.017,4.404-1.289c1.147-0.201,2.139-0.374,2.729-0.637c1.641-0.731,2.117-3.535,2.166-3.853  c0.022-0.145-0.005-0.293-0.078-0.42l-2.803-4.923c-0.156-0.275-0.488-0.399-0.787-0.289c-1.122,0.409-3.206,0.994-4.031,0.816  c-0.344-0.075-0.682,0.139-0.768,0.478c-0.192,0.769-0.586,1.573-0.826,1.689c-0.291,0.145-0.76,0.118-0.989-0.144  c-0.345-0.392-0.282-1.465,0.893-3.31c2.572-1.021,5.593-2.073,6.146-2.073c0.006,0,0.012,0,0.018,0.001  c0.598,0.195,2.821,2.857,4.523,5.221c0.209,0.291,0.613,0.359,0.907,0.147c0.291-0.21,0.357-0.616,0.147-0.907  c-1.863-2.588-4.322-5.687-5.454-5.752c-0.823-0.039-3.454,0.888-5.332,1.599c0.089-0.066,0.179-0.13,0.274-0.188  c2.439-1.126,5.24-2.313,5.881-2.434c0.873,0.394,5.091,4.077,5.893,5.159c0.494,0.668,1.085,4.382,1.347,6.806  c0.013,0.119,0.059,0.233,0.132,0.328c1.3,1.683,2.408,3.2,2.957,3.959l-4.549,3.376L39.231,32.802z M41.508,37.915l-2.072-2.792  l6.024-4.471c0.002-0.001,0.004-0.001,0.005-0.003s0.002-0.003,0.004-0.004l0.482-0.358l2.073,2.793L41.508,37.915z"
   id="path16"
   style="fill:#ffffff;fill-opacity:1.0" />
</svg>
