<?xml version="1.0" encoding="UTF-8" standalone="no"?>
<svg
   viewBox="0 0 512 512"
   version="1.1"
   id="svg644"
   sodipodi:docname="ico-respeto.svg"
   inkscape:version="1.1 (c68e22c387, 2021-05-23)"
   xmlns:inkscape="http://www.inkscape.org/namespaces/inkscape"
   xmlns:sodipodi="http://sodipodi.sourceforge.net/DTD/sodipodi-0.dtd"
   xmlns="http://www.w3.org/2000/svg"
   xmlns:svg="http://www.w3.org/2000/svg">
  <defs
     id="defs648" />
  <sodipodi:namedview
     id="namedview646"
     pagecolor="#ffffff"
     bordercolor="#111111"
     borderopacity="1"
     inkscape:pageshadow="0"
     inkscape:pageopacity="0"
     inkscape:pagecheckerboard="1"
     showgrid="false"
     inkscape:zoom="1.6210938"
     inkscape:cx="255.69157"
     inkscape:cy="256.30843"
     inkscape:window-width="1920"
     inkscape:window-height="1017"
     inkscape:window-x="1912"
     inkscape:window-y="-8"
     inkscape:window-maximized="1"
     inkscape:current-layer="svg644" />
  <g
     id="a" />
  <g
     id="b" />
  <g
     id="c"
     style="fill:#ffffff;fill-opacity:1.0">
    <g
       id="g640"
       style="fill:#ffffff;fill-opacity:1.0">
      <rect
         height="8"
         width="16"
         x="96"
         y="188"
         id="rect630"
         style="fill:#ffffff;fill-opacity:1.0" />
      <rect
         height="8"
         width="16"
         x="96"
         y="220"
         id="rect632"
         style="fill:#ffffff;fill-opacity:1.0" />
      <path
         d="M491.88086,191.0293l-3.64551-14.58008c-3.03223-12.12793-12.38086-21.79395-24.40039-25.22754l-35.83496-10.23926v-18.50928l6.79004-3.39502c5.55957-2.78027,9.44727-7.87109,10.66699-13.96777l6.44336-32.21875,7.98047-31.92188c.26172-1.04688,.08887-2.1543-.47852-3.07227s-1.48145-1.56836-2.53418-1.80176l-61.9082-13.75684c-7.47168-1.66211-15.41406-.17773-21.78125,4.06836-10.5625,7.04199-15.13574,20.37012-11.12207,32.41309l2.05029,6.14941,6.60791,39.65137c1.04883,6.29004,5.08008,11.74805,10.7832,14.60059l6.50195,3.25098v18.50977l-35.83496,10.23926c-12.01953,3.43359-21.36816,13.09961-24.40039,25.22754l-3.64551,14.58105c-.2959,1.18457-.03418,2.44043,.70996,3.4082l23.1709,30.12231V488c0,2.20898,1.79102,4,4,4h112c2.20898,0,4-1.79102,4-4V224.56055l23.1709-30.12207c.74414-.96777,1.00586-2.22363,.70996-3.40918Zm-113.27539-87.72363l-5.80078-34.80493,70.4082,7.04077-5.59961,27.99951c-.73242,3.6582-3.06543,6.71289-6.40137,8.38086l-23.21191,11.60645-22.92383-11.46289c-3.42285-1.71094-5.84082-4.98535-6.4707-8.75977Zm27.60547,28.27246c.56348,.28125,1.17578,.42188,1.78906,.42188s1.22559-.14062,1.78906-.42188l10.21094-5.10522v16.68042c-2.57178,5.63818-7.82568,7.67969-12,7.67969s-9.42822-2.0415-12-7.67969v-16.68066l10.21094,5.10547Zm-3.15723,107.42188l-13.73145,18.88086c-.96973,1.3335-1.74316,2.74878-2.36279,4.20605l-28.92969-37.60889,22.29932-16.72461,22.72461,31.24658Zm32.61719-31.24658l22.29932,16.72461-41.31787,53.71338c-2.28516,2.9707-5.74023,4.81348-9.48047,5.05664-3.74316,.23633-7.40527-1.1377-10.05566-3.78809-4.56055-4.56055-5.11719-11.65723-1.32324-16.87402l39.87793-54.83252Zm.3291,244.24658c-9.55078,0-18.13184,4.21118-24,10.86816v-134.86816h-8v134.86816c-5.86816-6.65698-14.44922-10.86816-24-10.86816s-18.13184,4.21118-24,10.86816v-162.86816h104v162.86816c-5.86816-6.65698-14.44922-10.86816-24-10.86816Zm24-160h-104v-57.03906l29.50928,38.36255c.64209,4.32666,2.63379,8.47583,5.95068,11.79272,3.95508,3.95605,9.30957,6.15918,14.86719,6.15918,.45312,0,.9082-.01465,1.36328-.04492,6.03711-.3916,11.61426-3.36621,15.30371-8.16211l37.00586-48.10767v57.03931Zm2.84863-73.86401l-22.47119-16.85376,10.85791-14.92969-6.4707-4.70508-36.76465,50.55151-36.76465-50.55151-6.4707,4.70508,10.85791,14.92969-22.47119,16.85376-20.80176-27.04224,3.17676-12.70508c2.33984-9.36133,9.55762-16.82422,18.83594-19.47559l35.56104-10.16016c3.80908,6.29248,10.45312,10.08008,18.07666,10.08008s14.26758-3.7876,18.07666-10.08008l35.56104,10.16016c9.27832,2.65137,16.49609,10.11426,18.83594,19.47559l3.17676,12.70508-20.80176,27.04224Z"
         id="path634"
         style="fill:#ffffff;fill-opacity:1.0" />
      <path
         d="M320.1709,180.46289c-1.88477-9.427-6.72461-17.7666-13.62549-23.99878l1.47998-3.75708c10.44434-26.11133,11.94141-55.38379,4.21484-82.42383l-4.24512-14.85938c-.30859-19.58594-16.33691-35.42383-35.99512-35.42383h-26.89941c-14.4209,0-27.40918,8.56445-33.08887,21.81836-10.5957,24.72168-13.1123,51.66797-7.27637,77.92676l7.09937,31.93237c-10.2937,6.34619-17.58423,16.67261-20.00562,28.7854l-3.75098,18.75293c-.20312,1.01074-.00684,2.06152,.54688,2.93164l15.375,24.16064v44.94556c-10.39209,26.48022-11.17139,55.87915-2.17188,82.8811l2.37695,7.12988c.54492,1.63379,2.07324,2.73535,3.79492,2.73535h12.31934l7.6709,92.04517c-4.84131,3.65356-7.99023,9.43579-7.99023,15.95483v16c0,2.20898,1.79102,4,4,4h64c2.20898,0,4-1.79102,4-4v-16c0-6.51904-3.14893-12.30127-7.99023-15.95483l7.6709-92.04517h12.31934c1.72168,0,3.25-1.10156,3.79492-2.73535l2.37695-7.12988c8.99951-27.00195,8.22021-56.40088-2.17188-82.8811v-44.94556l15.375-24.16064c.55371-.87012,.75-1.9209,.54688-2.93164l-3.75098-18.75293Zm-89.90625-97.53125l-1.79004-8.95215,35.7002-21.41992,27.39355,13.69727-1.68359,10.10742c-3.33008,19.97461-15.82227,37.3916-33.58594,46.97852-13.53906-9.7207-22.74805-23.98535-26.03418-40.41113Zm13.73535,40.59399c3.01123,2.83936,6.26758,5.45996,9.78125,7.80249,.66895,.44629,1.44238,.67188,2.21875,.67188,.61133,0,1.22363-.13965,1.78906-.42188l.2832-.1416c3.48779-1.74414,6.80176-3.7583,9.92773-6.00171v18.00659l-12,41.99805-12-41.99805v-19.91577Zm16.75684,138.82104c3.14062,4.71094,1.86328,11.09961-2.84766,14.24023-2.31641,1.54492-5.08984,2.08008-7.81738,1.50293-2.72363-.57422-5.04785-2.18457-6.54199-4.53418l-25.43066-39.9624,20.11621-5.02881,22.52148,33.78223Zm13.00732-33.78247l20.11719,5.02905-23.61621,37.11084c.66553-4.48486-.31836-8.99561-2.85205-12.79492l-6.60645-9.90942,12.95752-19.43555Zm-43.23291,39.43579h-18.53125v-29.12061l18.53125,29.12061Zm-2.18384,96h23.65259v92.03784c-3.34717-2.52271-7.49487-4.03784-12-4.03784-1.46997,0-2.89893,.17017-4.27954,.47241l-7.37305-88.47241Zm47.93188,88.47241c-1.38037-.30225-2.80957-.47241-4.2793-.47241-4.50488,0-8.65283,1.51514-12,4.03784v-92.03784h23.65283l-7.37354,88.47241Zm23.7207-184.47241h-18.53125l18.53125-29.12061v29.12061Zm-1.59131-41.52124l-19.93213-4.98291,12.85156-19.2771-6.65625-4.4375-28.67236,43.00757-28.67139-43.00757-6.65625,4.4375,12.85132,19.2771-19.93164,4.98267-17.35425-27.27051,3.43555-17.17676c2.39453-11.97363,10.59277-21.83008,21.93066-26.36426l15.76807-6.30762,14.78271,51.73926c.49023,1.71777,2.05957,2.90137,3.8457,2.90137s3.35547-1.18359,3.8457-2.90137l14.78271-51.73926,15.76807,6.30762c11.33789,4.53418,19.53613,14.39062,21.93066,26.36426l3.43555,17.17773-17.354,27.26978Z"
         id="path636"
         style="fill:#ffffff;fill-opacity:1.0" />
      <path
         d="M182.76855,178.57812c-2.11035-8.4375-8.1416-15.51953-16.13477-18.94434l-42.63379-18.27148v-17.33301c14.27051-7.67407,22.41064-23.43945,20.07324-39.80469l-3.85254-26.96558c9.70239-7.979,15.7793-20.05347,15.7793-33.25903,0-2.20898-1.79102-4-4-4h-48c-19.85059,0-36,16.14941-36,36v15.60645l-2.2168,11.08301c-3.27417,16.37231,4.25659,32.74731,18.2168,41.08618v17.58667l-42.63281,18.27148c-7.99414,3.4248-14.02539,10.50684-16.13574,18.94531l-5.1123,20.45117c-.2793,1.11621-.06348,2.2998,.5918,3.24609l15.30811,22.11182,7.99878,71.99463,15.99585,191.94922,.01953-.00171c.1709,2.05176,1.87109,3.66968,3.9668,3.66968h80c2.0957,0,3.7959-1.61792,3.9668-3.66968l.01953,.00171,15.99585-191.94922,7.99878-71.99487,15.30811-22.11157c.65527-.94629,.87109-2.12988,.5918-3.24609l-5.1123-20.45215Zm-78.76855-49.25977c4.04419,0,8.0874-.64551,12-1.91528v14.94067l-12,11.99902-12-11.99902v-14.94092c3.91211,1.26978,7.95459,1.91553,12,1.91553Zm-30.37305-45.06055l1.77197-8.85889,46.00635-9.20166c4.06372-.8125,7.896-2.198,11.43262-4.04761l3.31543,23.20581c2.02734,14.18848-5.85156,27.81543-19.16113,33.13867l-1.48828,.59668c-7.41895,2.9668-15.58887,2.9668-23.00781,0-13.86035-5.54492-21.7959-20.19434-18.86914-34.83301Zm25.42725,173.74292l-5.97803,8.21997c-5.08057,6.98438-5.19434,16.0979-.71289,23.09277-1.69824-.91528-3.20288-2.22046-4.35156-3.87891l-15.4585-22.32935,20.34814-13.56494,6.15283,8.46045Zm16.04468-8.46021l20.34766,13.56445-15.45825,22.32861c-2.12109,3.06543-5.46777,5.01465-9.17969,5.34961-3.71289,.33105-7.35352-.98535-9.99023-3.62109-4.38867-4.38867-4.92383-11.2168-1.27246-16.23633l15.55298-21.38525Zm8.90112,202.45947c-6.14209,0-11.75049,2.32202-16,6.13086v-138.13086h-8v138.13086c-4.24951-3.80884-9.85791-6.13086-16-6.13086-7.31641,0-13.87402,3.29468-18.27979,8.47412l-13.3728-160.47412h103.30518l-13.3728,160.47412c-4.40576-5.17944-10.96338-8.47412-18.27979-8.47412Zm-42.56641-162.01172c.4917,.70996,1.02271,1.38086,1.58862,2.01172h-31.44214l-5.97314-53.76221,35.82666,51.75049Zm74.98633,2.01172h-31.44775c.56738-.63428,1.10303-1.30298,1.59424-2.0127l35.82666-51.75-5.97314,53.7627Zm-16.41919-35.47339l-20.19263-13.46118,35.42725-48.71289-6.4707-4.70508-44.76416,61.552-44.76514-61.552-6.4707,4.70508,35.42749,48.71265-20.19312,13.46167-39.67871-57.31396,4.67285-18.69336c1.50684-6.02734,5.81543-11.08594,11.52539-13.53223l14.56885-6.24365,18.08447,18.08447c.77246,.77344,1.79688,1.17188,2.8291,1.17188,.76855,0,1.54102-.2207,2.21777-.67188l21.78125-14.52075,21.78125,14.52075c.67676,.45117,1.44922,.67188,2.21777,.67188,1.03223,0,2.05664-.39844,2.8291-1.17188l18.08472-18.08472,14.56958,6.2439c5.70898,2.44629,10.01758,7.50488,11.52441,13.53125l4.67285,18.69434-39.67896,57.31372Z"
         id="path638"
         style="fill:#ffffff;fill-opacity:1.0" />
    </g>
  </g>
  <g
     id="d" />
</svg>
